<svg width="74" height="47" viewBox="0 0 74 47" fill="none" xmlns="http://www.w3.org/2000/svg">
<g filter="url(#filter0_b_11_336)">
<rect width="74" height="47" rx="8" fill="#42BBFF" fill-opacity="0.06"/>
<path d="M19.7389 22.1392C19.0263 22.1392 18.3966 22.0166 17.8497 21.7713C17.3061 21.526 16.8802 21.188 16.572 20.7571C16.2637 20.3262 16.1113 19.8357 16.1146 19.2855C16.1113 18.8546 16.1991 18.4586 16.3781 18.0973C16.5604 17.7327 16.8073 17.4295 17.1189 17.1875C17.4304 16.9422 17.7784 16.7865 18.1629 16.7202V16.6605C17.6558 16.5379 17.2498 16.2661 16.9449 15.8452C16.6399 15.4242 16.4891 14.9403 16.4924 14.3935C16.4891 13.8731 16.6267 13.4091 16.9051 13.0014C17.1868 12.5904 17.5729 12.2673 18.0635 12.032C18.554 11.7966 19.1125 11.679 19.7389 11.679C20.3587 11.679 20.9122 11.7983 21.3994 12.0369C21.8899 12.2723 22.2761 12.5954 22.5578 13.0064C22.8395 13.4141 22.982 13.8764 22.9853 14.3935C22.982 14.9403 22.8262 15.4242 22.518 15.8452C22.2098 16.2661 21.8087 16.5379 21.3149 16.6605V16.7202C21.696 16.7865 22.0391 16.9422 22.344 17.1875C22.6522 17.4295 22.8975 17.7327 23.0798 18.0973C23.2654 18.4586 23.3599 18.8546 23.3632 19.2855C23.3599 19.8357 23.2041 20.3262 22.8958 20.7571C22.5876 21.188 22.1601 21.526 21.6132 21.7713C21.0696 22.0166 20.4449 22.1392 19.7389 22.1392ZM19.7389 20.8814C20.1598 20.8814 20.5244 20.8118 20.8326 20.6726C21.1409 20.5301 21.3795 20.3329 21.5485 20.081C21.7176 19.8258 21.8038 19.5275 21.8071 19.1861C21.8038 18.8314 21.711 18.5182 21.5287 18.2464C21.3497 17.9747 21.1061 17.7609 20.7978 17.6051C20.4896 17.4493 20.1366 17.3714 19.7389 17.3714C19.3378 17.3714 18.9815 17.4493 18.67 17.6051C18.3584 17.7609 18.1132 17.9747 17.9342 18.2464C17.7552 18.5182 17.6674 18.8314 17.6707 19.1861C17.6674 19.5275 17.7486 19.8258 17.9143 20.081C18.0833 20.3329 18.3236 20.5301 18.6352 20.6726C18.9467 20.8118 19.3146 20.8814 19.7389 20.8814ZM19.7389 16.1435C20.077 16.1435 20.3769 16.0755 20.6387 15.9396C20.9006 15.8037 21.1061 15.6148 21.2552 15.3729C21.4077 15.1309 21.4856 14.8475 21.4889 14.5227C21.4856 14.2045 21.4093 13.9261 21.2602 13.6875C21.1144 13.4489 20.9105 13.2649 20.6487 13.1357C20.3868 13.0031 20.0836 12.9368 19.7389 12.9368C19.3876 12.9368 19.0793 13.0031 18.8142 13.1357C18.5523 13.2649 18.3485 13.4489 18.2027 13.6875C18.0568 13.9261 17.9856 14.2045 17.9889 14.5227C17.9856 14.8475 18.0585 15.1309 18.2076 15.3729C18.3568 15.6148 18.5623 15.8037 18.8241 15.9396C19.0893 16.0755 19.3942 16.1435 19.7389 16.1435ZM24.6505 20.0114V18.7685L29.0503 11.8182H30.0297V13.6477H29.4083L26.2613 18.6293V18.7088H32.2918V20.0114H24.6505ZM29.4779 22V19.6335L29.4878 19.0668V11.8182H30.9445V22H29.4779ZM35.3154 20.608L35.2409 21.1499C35.1911 21.5476 35.1066 21.9619 34.9873 22.3928C34.8713 22.8269 34.7503 23.2296 34.6244 23.6009C34.5017 23.9721 34.4007 24.267 34.3211 24.4858H33.2671C33.3102 24.2803 33.3699 24.0019 33.4461 23.6506C33.5223 23.3026 33.5969 22.9131 33.6698 22.4822C33.7427 22.0514 33.7974 21.6122 33.8339 21.1648L33.8836 20.608H35.3154ZM39.7473 11.8182V22H38.2061V13.3594H38.1464L35.7103 14.9503V13.4787L38.2508 11.8182H39.7473ZM45.5823 22.1392C44.9592 22.1392 44.3991 22.0199 43.9019 21.7812C43.4081 21.5393 43.0137 21.2079 42.7187 20.7869C42.4237 20.366 42.2663 19.8854 42.2464 19.3452H43.7378C43.7743 19.7827 43.9682 20.1423 44.3195 20.424C44.6709 20.7057 45.0918 20.8466 45.5823 20.8466C45.9734 20.8466 46.3198 20.7571 46.6214 20.5781C46.9263 20.3958 47.1649 20.1456 47.3373 19.8274C47.5129 19.5092 47.6008 19.1463 47.6008 18.7386C47.6008 18.3243 47.5113 17.9548 47.3323 17.63C47.1533 17.3052 46.9064 17.05 46.5915 16.8643C46.28 16.6787 45.922 16.5843 45.5177 16.581C45.2094 16.581 44.8995 16.634 44.588 16.7401C44.2764 16.8461 44.0245 16.9853 43.8323 17.1577L42.4253 16.9489L42.9971 11.8182H48.5951V13.1357H44.2748L43.9516 15.9844H44.0113C44.2101 15.7921 44.4736 15.6314 44.8018 15.5021C45.1332 15.3729 45.4878 15.3082 45.8657 15.3082C46.4855 15.3082 47.0373 15.4557 47.5212 15.7507C48.0084 16.0457 48.3913 16.4484 48.6697 16.9588C48.9514 17.4659 49.0906 18.0492 49.0873 18.7088C49.0906 19.3684 48.9414 19.9567 48.6398 20.4737C48.3415 20.9908 47.9272 21.3984 47.3969 21.6967C46.87 21.9917 46.2651 22.1392 45.5823 22.1392ZM54.1679 22.169C53.3824 22.1657 52.7112 21.9586 52.1544 21.5476C51.5976 21.1366 51.1717 20.5384 50.8767 19.7528C50.5817 18.9673 50.4342 18.0211 50.4342 16.9141C50.4342 15.8104 50.5817 14.8674 50.8767 14.0852C51.175 13.303 51.6026 12.7064 52.1594 12.2955C52.7195 11.8845 53.389 11.679 54.1679 11.679C54.9468 11.679 55.6146 11.8861 56.1714 12.3004C56.7283 12.7114 57.1542 13.308 57.4491 14.0902C57.7474 14.8691 57.8966 15.8104 57.8966 16.9141C57.8966 18.0244 57.7491 18.9723 57.4541 19.7578C57.1591 20.54 56.7332 21.1383 56.1764 21.5526C55.6196 21.9635 54.9501 22.169 54.1679 22.169ZM54.1679 20.8416C54.8573 20.8416 55.3959 20.5052 55.7837 19.8324C56.1748 19.1596 56.3703 18.1868 56.3703 16.9141C56.3703 16.0689 56.2808 15.3546 56.1018 14.7713C55.9262 14.1847 55.6726 13.7405 55.3412 13.4389C55.0131 13.134 54.622 12.9815 54.1679 12.9815C53.4818 12.9815 52.9432 13.3196 52.5521 13.9957C52.161 14.6719 51.9638 15.6446 51.9605 16.9141C51.9605 17.7625 52.0483 18.4801 52.224 19.0668C52.403 19.6501 52.6565 20.0926 52.9847 20.3942C53.3128 20.6925 53.7072 20.8416 54.1679 20.8416Z" fill="white"/>
<path d="M25.1881 35.7784V30.9773H26.1433V35.7784H25.1881ZM23.2669 33.8537V32.902H28.0681V33.8537H23.2669ZM29.3436 35.5795V34.6918L32.4863 29.7273H33.1859V31.0341H32.742L30.4941 34.5923V34.6491H34.8017V35.5795H29.3436ZM32.7917 37V35.3097L32.7988 34.9048V29.7273H33.8393V37H32.7917ZM36.2796 37.0675C36.0854 37.0675 35.9185 36.9988 35.7789 36.8615C35.6392 36.7218 35.5693 36.5537 35.5693 36.3572C35.5693 36.1631 35.6392 35.9974 35.7789 35.8601C35.9185 35.7204 36.0854 35.6506 36.2796 35.6506C36.4737 35.6506 36.6406 35.7204 36.7803 35.8601C36.92 35.9974 36.9898 36.1631 36.9898 36.3572C36.9898 36.4875 36.9566 36.607 36.8904 36.7159C36.8264 36.8224 36.7412 36.9077 36.6347 36.9716C36.5281 37.0355 36.4098 37.0675 36.2796 37.0675ZM40.4812 37.0994C40.0361 37.0994 39.636 37.0142 39.2809 36.8438C38.9282 36.6709 38.6464 36.4342 38.4357 36.1335C38.225 35.8329 38.1126 35.4896 38.0984 35.1037H39.1637C39.1898 35.4162 39.3283 35.6731 39.5792 35.8743C39.8302 36.0755 40.1308 36.1761 40.4812 36.1761C40.7606 36.1761 41.0079 36.1122 41.2234 35.9844C41.4412 35.8542 41.6116 35.6754 41.7347 35.4482C41.8602 35.2209 41.923 34.9616 41.923 34.6705C41.923 34.3745 41.859 34.1106 41.7312 33.8786C41.6034 33.6465 41.427 33.4643 41.2021 33.3317C40.9795 33.1991 40.7239 33.1316 40.435 33.1293C40.2149 33.1293 39.9935 33.1671 39.771 33.2429C39.5484 33.3187 39.3685 33.4181 39.2312 33.5412L38.2262 33.392L38.6346 29.7273H42.6332V30.6683H39.5472L39.3164 32.7031H39.359C39.5011 32.5658 39.6893 32.451 39.9237 32.3587C40.1604 32.2663 40.4137 32.2202 40.6836 32.2202C41.1263 32.2202 41.5205 32.3255 41.8661 32.5362C42.2142 32.7469 42.4876 33.0346 42.6865 33.3991C42.8877 33.7614 42.9871 34.178 42.9847 34.6491C42.9871 35.1203 42.8806 35.5405 42.6651 35.9098C42.4521 36.2791 42.1561 36.5703 41.7774 36.7834C41.4009 36.9941 40.9689 37.0994 40.4812 37.0994ZM47.878 35.6364V35.2528C47.878 34.9782 47.9348 34.7273 48.0484 34.5C48.1644 34.2704 48.3325 34.0869 48.5527 33.9496C48.7752 33.8099 49.0439 33.7401 49.3588 33.7401C49.6808 33.7401 49.9506 33.8087 50.1684 33.946C50.3863 34.0833 50.5508 34.2668 50.6621 34.4964C50.7757 34.7261 50.8325 34.9782 50.8325 35.2528V35.6364C50.8325 35.911 50.7757 36.1631 50.6621 36.3928C50.5484 36.62 50.3815 36.8035 50.1613 36.9432C49.9435 37.0805 49.676 37.1491 49.3588 37.1491C49.0392 37.1491 48.7693 37.0805 48.5491 36.9432C48.329 36.8035 48.1621 36.62 48.0484 36.3928C47.9348 36.1631 47.878 35.911 47.878 35.6364ZM48.7054 35.2528V35.6364C48.7054 35.84 48.7539 36.0246 48.851 36.1903C48.948 36.3561 49.1173 36.4389 49.3588 36.4389C49.5979 36.4389 49.7648 36.3561 49.8595 36.1903C49.9542 36.0246 50.0015 35.84 50.0015 35.6364V35.2528C50.0015 35.0492 49.9554 34.8646 49.8631 34.6989C49.7731 34.5331 49.605 34.4503 49.3588 34.4503C49.122 34.4503 48.954 34.5331 48.8545 34.6989C48.7551 34.8646 48.7054 35.0492 48.7054 35.2528ZM44.2203 31.4744V31.0909C44.2203 30.8163 44.2771 30.5642 44.3907 30.3345C44.5068 30.1049 44.6748 29.9214 44.895 29.7841C45.1175 29.6468 45.3863 29.5781 45.7011 29.5781C46.0231 29.5781 46.293 29.6468 46.5108 29.7841C46.7286 29.9214 46.8931 30.1049 47.0044 30.3345C47.1157 30.5642 47.1713 30.8163 47.1713 31.0909V31.4744C47.1713 31.7491 47.1145 32.0012 47.0008 32.2308C46.8896 32.4581 46.7238 32.6416 46.5037 32.7812C46.2859 32.9186 46.0184 32.9872 45.7011 32.9872C45.3791 32.9872 45.1081 32.9186 44.8879 32.7812C44.6701 32.6416 44.5044 32.4581 44.3907 32.2308C44.2771 32.0012 44.2203 31.7491 44.2203 31.4744ZM45.0513 31.0909V31.4744C45.0513 31.678 45.0986 31.8627 45.1933 32.0284C45.2904 32.1941 45.4596 32.277 45.7011 32.277C45.9379 32.277 46.1036 32.1941 46.1983 32.0284C46.2953 31.8627 46.3439 31.678 46.3439 31.4744V31.0909C46.3439 30.8873 46.2977 30.7027 46.2054 30.5369C46.1131 30.3712 45.945 30.2884 45.7011 30.2884C45.4644 30.2884 45.2963 30.3712 45.1969 30.5369C45.0998 30.7027 45.0513 30.8873 45.0513 31.0909ZM44.5577 37L49.5577 29.7273H50.4064L45.4064 37H44.5577Z" fill="white"/>
<rect x="0.5" y="0.5" width="73" height="46" rx="7.5" stroke="#8B91A5"/>
</g>
<defs>
<filter id="filter0_b_11_336" x="-7" y="-7" width="88" height="61" filterUnits="userSpaceOnUse" color-interpolation-filters="sRGB">
<feFlood flood-opacity="0" result="BackgroundImageFix"/>
<feGaussianBlur in="BackgroundImageFix" stdDeviation="3.5"/>
<feComposite in2="SourceAlpha" operator="in" result="effect1_backgroundBlur_11_336"/>
<feBlend mode="normal" in="SourceGraphic" in2="effect1_backgroundBlur_11_336" result="shape"/>
</filter>
</defs>
</svg>
